<svg xmlns="http://www.w3.org/2000/svg" xmlns:xlink="http://www.w3.org/1999/xlink" class="card" height="336" preserveAspectRatio="none" viewBox="-120 -168 240 336" width="240"><symbol id="b" viewBox="-500 -500 1000 1000" preserveAspectRatio="xMinYMid"><path d="M-270 460h160m-90-10L0-460l200 910m-90 10h160m-390-330h240" stroke="#000" stroke-width="80" stroke-linecap="square" stroke-miterlimit="1.5" fill="none"/></symbol><symbol id="a" viewBox="-600 -600 1200 1200" preserveAspectRatio="xMinYMid"><path d="M0-500c100 250 355 400 355 685a150 150 0 01-300 0 10 10 0 00-20 0c0 200 50 215 95 315h-260c45-100 95-115 95-315a10 10 0 00-20 0 150 150 0 01-300 0c0-285 255-435 355-685z"/></symbol><rect width="239" height="335" x="-119.5" y="-167.5" rx="12" ry="12" fill="#fff" stroke="#000"/><use xlink:href="#a" height="164.8" width="164.8" x="-82.4" y="-82.4" stroke="#000" stroke-width="100" stroke-dasharray="100,100" stroke-linecap="round"/><use xlink:href="#a" height="164.8" width="164.8" x="-82.4" y="-82.4" stroke="#fff" stroke-width="50"/><use xlink:href="#a" height="164.8" width="164.8" x="-82.4" y="-82.4"/><path fill="#fff" d="M0-34.098l8.434 8.434L0-17.229l-8.434-8.435M0-31.688l-6.025 6.024L0-19.639l6.025-6.025m3.614 1.205l2.41 2.41-1.205 1.205 1.205 1.205 1.205-1.205 2.41 2.41-3.615 3.614-1.205-1.205L9.64-14.82l1.205 1.205L9.64-12.41l-2.41-2.41 2.41-2.41 1.205 1.205 1.205-1.204-3.615-3.615L7.23-19.64l-1.204-1.205m10.844 3.615l8.434 8.434L16.87-.361 8.434-8.795m8.435-6.025l-6.025 6.025 6.025 6.024 6.024-6.024M0-29.28l3.615 3.615L0-22.049l-3.615-3.615M16.87-12.41l3.614 3.615L16.87-5.18l-3.615-3.615M4.82-19.64l2.41 2.41-1.205 1.204-2.41-2.41M2.41-17.228l1.205 1.204L2.41-14.82l1.205 1.205L4.82-14.82l1.205 1.205-2.41 2.41L4.82-10 3.615-8.795 4.82-7.59l1.205-1.205L7.229-7.59 6.025-6.385 7.229-5.18 4.82-2.77l1.206 1.204L4.82-.36 3.615-1.566 1.205.844 2.41 2.05 3.615.844l2.41 2.41 1.204-1.205L6.025.844 7.229-.36 8.434.844 7.23 2.05l1.205 1.205L4.82 6.869l1.205 1.205 2.41-2.41 1.204 1.205-2.41 2.41-1.204-1.205L4.82 9.279l1.205 1.204-1.205 1.205-2.41-2.41 2.41-2.41-1.205-1.204L2.41 6.869 1.205 5.664 2.41 4.459l1.205 1.205L4.82 4.459l-2.41-2.41-3.615 3.615 2.41 2.41L0 9.279l-1.205-1.205-1.205 1.205-3.615-3.615 1.205-1.205 2.41 2.41 1.205-1.205-1.205-1.205 1.205-1.205-1.205-1.205-1.205 1.205-1.205-1.205-3.614 3.615 1.205 1.205-1.205 1.205-2.41-2.41 2.41-2.41-2.41-2.41-2.41 2.41-2.41-2.41 1.205-1.205 1.205 1.205 2.41-2.41-1.205-1.205 6.024-6.024-2.41-2.41 1.206-1.205-2.41-2.41-1.205 1.205-3.615-3.614 2.41-2.41-1.205-1.205 3.615-3.615 1.205 1.205-3.615 3.615 1.205 1.205 1.205-1.205 1.205 1.205 2.41-2.41 7.229 7.23L2.41-14.82l-1.205-1.205m6.024 3.615l1.205 1.205L7.23-10l-1.204-1.205m-4.82-2.41L0-12.41l1.205 1.205L2.41-12.41m-7.23-4.82l-2.41 2.41 1.205 1.205 1.205-1.205 1.205 1.205 1.205-1.205M9.64-5.18l1.204 1.205-2.41 2.41L7.23-2.772m4.82 0L15.664.844 12.049 4.46l-1.205-1.205 2.41-2.41-2.41-2.41M-3.615-13.615L-4.82-12.41l1.205 1.205-2.41 2.41L-4.82-7.59-2.41-10l1.205 1.205L0-10m3.615 3.615L2.41-5.18l1.205 1.205L4.82-5.18M-9.64-17.23l-1.204 1.205 1.205 1.205 1.205-1.205m2.41 2.41L-7.23-12.41l1.204 1.205 1.205-1.205m3.615 3.615l-2.41 2.41L-2.41-5.18l1.205-1.205L0-5.18l1.205-1.205m0 2.41L0-2.771l1.205 1.205L2.41-2.77m-7.23-4.82l-2.41 2.41 1.205 1.206-1.204 1.204 1.204 1.205L-7.229-.36l2.41 2.41L-3.616.844-2.41 2.05 0-.36l-2.41-2.41-1.205 1.205L-4.82-2.77l1.205-1.204L-4.82-5.18l1.205-1.205M-2.41-5.18l-1.205 1.205 1.205 1.204 1.205-1.204M-16.869-17.23l8.435 8.434-8.435 8.434-8.434-8.434m8.434-6.025l-6.024 6.025 6.024 6.024 6.025-6.024m-6.025-3.615l3.615 3.615-3.615 3.615-3.614-3.615M-9.64-2.771l-1.205 1.205 2.41 2.41L-7.23-.36m8.434 10.844l2.41 2.41-1.205 1.205-1.205-1.205-2.41 2.41-1.205-1.205 1.205-1.205-1.205-1.205-1.205 1.205-1.205-1.205 1.205-1.205 1.205 1.205 1.205-1.205L0 11.688"/><text font-size="20" font-family="Bariol" text-anchor="middle" y="100.4">www.me.uk</text><text font-size="20" font-family="Bariol" text-anchor="middle" y="120.4">/cards/</text><use xlink:href="#b" height="32" width="32" x="-114.4" y="-156"/><use xlink:href="#a" height="26.769" width="26.769" x="-111.784" y="-119"/><g transform="rotate(180)"><use xlink:href="#b" height="32" width="32" x="-114.4" y="-156"/><use xlink:href="#a" height="26.769" width="26.769" x="-111.784" y="-119"/></g></svg>